<?xml version="1.0" encoding="utf-8"?>
<!-- Generator: Adobe Illustrator 16.0.0, SVG Export Plug-In . SVG Version: 6.00 Build 0)  -->
<!DOCTYPE svg PUBLIC "-//W3C//DTD SVG 1.1//EN" "http://www.w3.org/Graphics/SVG/1.1/DTD/svg11.dtd">
<svg version="1.1" id="Layer_1" xmlns="http://www.w3.org/2000/svg" xmlns:xlink="http://www.w3.org/1999/xlink" x="0px" y="0px"
	 width="152px" height="152px" viewBox="0 0 152 152" enable-background="new 0 0 152 152" xml:space="preserve">
<circle fill="none" stroke="#FD4F00" stroke-miterlimit="10" cx="76" cy="76" r="76"/>
<path fill="#FD4F00" d="M104.889,69.151c0.035,0.561,0.113,1.117,0.228,1.666c0.152,0.719,0.368,1.414,0.693,2.074
	c0.303,0.618,0.684,1.189,1.102,1.737c0.59,0.776,1.213,1.528,1.818,2.291c0.537,0.676,1.061,1.364,1.517,2.097
	c0.445,0.717,0.791,1.479,1.016,2.297c0.098,0.355,0.158,0.733,0.199,1.104c0.036-0.063,0.069-0.127,0.101-0.19
	c0.026-0.048,0.054-0.097,0.079-0.146c0.018-0.037,0.036-0.075,0.052-0.115c0.147-0.299,0.279-0.604,0.394-0.918
	c0.496-1.336,0.753-2.721,0.803-4.143c0.03-0.834-0.011-1.663-0.12-2.491c-0.113-0.871-0.3-1.727-0.572-2.563
	c-0.316-0.986-0.741-1.922-1.325-2.783c-0.475-0.699-1.032-1.314-1.72-1.81c-0.833-0.601-1.758-0.949-2.78-1.038
	c-0.133-0.01-0.266-0.011-0.412-0.017c0.489,0.253,2.252,1.27,3.175,3.075c-0.025-0.027-0.052-0.058-0.076-0.088
	c-0.012-0.014-0.024-0.027-0.038-0.041c-0.537-0.625-1.761-1.974-3.735-2.84c-0.01,0.009-0.015,0.027-0.025,0.055
	c-0.045,0.141-0.092,0.28-0.134,0.418c-0.1,0.331-0.199,0.661-0.258,1c0,0.056,0.002,0.112-0.003,0.17
	C104.836,68.35,104.861,68.751,104.889,69.151"/>
<path opacity="0.7" fill="#FD4F00" d="M104.645,70.682c0.028,0.471,0.086,0.94,0.171,1.405c0.187,1.009,0.497,1.983,0.901,2.925
	c0.423,0.994,0.896,1.965,1.353,2.941c0.302,0.641,0.579,1.284,0.819,1.948c0.337,0.952,0.502,1.935,0.545,2.938
	c0.03,0.655,0,1.313-0.11,1.962c-0.02,0.117-0.041,0.231-0.064,0.349c-0.077,0.404-0.151,0.648-0.151,0.648
	c0.444-0.216,2.132-1.151,3.358-3.386c-0.044-0.371-0.102-0.743-0.2-1.102c-0.226-0.817-0.566-1.579-1.017-2.298
	c-0.456-0.731-0.979-1.419-1.516-2.096c-0.606-0.763-1.227-1.515-1.819-2.291c-0.417-0.548-0.795-1.119-1.103-1.738
	c-0.324-0.66-0.539-1.355-0.688-2.074c-0.115-0.549-0.195-1.105-0.233-1.666c-0.024-0.4-0.05-0.8-0.022-1.202
	c0.008-0.058,0.004-0.114,0.004-0.17c-0.004,0.011-0.011,0.021-0.014,0.03c-0.127,0.6-0.206,1.202-0.226,1.817
	C104.619,69.976,104.621,70.329,104.645,70.682"/>
<path fill="#FD4F00" d="M106.078,82.849c-0.038-0.561-0.116-1.116-0.23-1.667c-0.151-0.719-0.366-1.415-0.69-2.075
	c-0.306-0.617-0.686-1.19-1.103-1.736c-0.592-0.775-1.213-1.527-1.817-2.289c-0.54-0.679-1.061-1.365-1.519-2.096
	c-0.446-0.718-0.792-1.481-1.016-2.298c-0.097-0.357-0.157-0.737-0.201-1.104c-0.034,0.061-0.066,0.126-0.102,0.188
	c-0.026,0.05-0.052,0.099-0.074,0.147c-0.019,0.038-0.039,0.076-0.056,0.113c-0.143,0.3-0.278,0.605-0.392,0.918
	c-0.495,1.339-0.754,2.723-0.802,4.145c-0.028,0.833,0.013,1.665,0.12,2.49c0.115,0.875,0.299,1.727,0.569,2.565
	c0.318,0.984,0.745,1.922,1.328,2.78c0.476,0.699,1.032,1.315,1.721,1.813c0.83,0.6,1.758,0.947,2.779,1.037
	c0.135,0.01,0.267,0.012,0.411,0.018c-0.488-0.253-2.253-1.271-3.171-3.077c0.02,0.027,0.046,0.059,0.074,0.087
	c0.01,0.015,0.024,0.028,0.035,0.043c0.539,0.624,1.761,1.972,3.735,2.84c0.009-0.009,0.017-0.026,0.027-0.057
	c0.044-0.139,0.091-0.275,0.134-0.415c0.098-0.33,0.199-0.662,0.256-1c0-0.058,0-0.113,0.005-0.17
	C106.13,83.65,106.105,83.249,106.078,82.849"/>
<path opacity="0.7" fill="#FD4F00" d="M106.319,81.317c-0.025-0.471-0.082-0.94-0.168-1.407c-0.188-1.006-0.499-1.981-0.902-2.925
	c-0.426-0.991-0.894-1.964-1.354-2.942c-0.3-0.636-0.579-1.281-0.815-1.948c-0.341-0.952-0.504-1.932-0.549-2.939
	c-0.03-0.655,0-1.309,0.113-1.959c0.017-0.117,0.038-0.236,0.062-0.349c0.078-0.406,0.153-0.647,0.153-0.647
	c-0.446,0.216-2.134,1.149-3.357,3.382v0.001c0.043,0.372,0.102,0.743,0.198,1.103c0.224,0.816,0.569,1.58,1.015,2.298
	c0.456,0.73,0.98,1.417,1.517,2.096c0.607,0.762,1.229,1.514,1.82,2.289c0.417,0.546,0.798,1.119,1.102,1.736
	c0.325,0.66,0.538,1.356,0.691,2.075c0.114,0.551,0.193,1.106,0.229,1.667c0.026,0.4,0.051,0.802,0.022,1.2
	c-0.004,0.058-0.003,0.114-0.003,0.17c0.004-0.012,0.014-0.02,0.016-0.03c0.129-0.599,0.204-1.202,0.228-1.813
	C106.347,82.021,106.344,81.67,106.319,81.317"/>
<path fill="#FD4F00" d="M9.635,83.246V68.313h3.285v14.934H9.635z"/>
<path fill="#FD4F00" d="M27.127,83.246l-7.232-9.494v9.494h-3.243V68.313h3.029l6.998,9.194v-9.194h3.243v14.934H27.127z"/>
<path fill="#FD4F00" d="M46.69,78.723c-0.384,0.91-0.928,1.699-1.632,2.368c-0.704,0.669-1.543,1.194-2.517,1.579
	c-0.975,0.384-2.044,0.576-3.211,0.576h-5.824V68.313h5.824c1.167,0,2.236,0.188,3.211,0.565c0.974,0.376,1.813,0.899,2.517,1.568
	c0.704,0.668,1.248,1.454,1.632,2.357c0.384,0.903,0.576,1.881,0.576,2.933v0.042C47.266,76.832,47.074,77.813,46.69,78.723z
	 M43.832,75.779c0-0.654-0.11-1.258-0.331-1.813c-0.221-0.554-0.526-1.031-0.917-1.429c-0.391-0.397-0.864-0.707-1.418-0.928
	c-0.555-0.22-1.167-0.331-1.835-0.331h-2.539v9.003h2.539c0.668,0,1.28-0.106,1.835-0.32c0.555-0.213,1.027-0.519,1.418-0.917
	s0.697-0.867,0.917-1.408c0.22-0.54,0.331-1.145,0.331-1.813V75.779z"/>
<path fill="#FD4F00" d="M59.255,83.246l-3.199-4.779h-2.582v4.779h-3.285V68.313h6.826c1.778,0,3.161,0.434,4.149,1.301
	c0.989,0.868,1.483,2.077,1.483,3.627v0.043c0,1.209-0.296,2.194-0.886,2.955c-0.59,0.761-1.362,1.319-2.314,1.674l3.648,5.334
	H59.255z M59.32,73.411c0-0.711-0.228-1.245-0.683-1.6s-1.088-0.534-1.899-0.534h-3.264v4.289h3.328c0.81,0,1.433-0.192,1.867-0.576
	c0.434-0.384,0.65-0.896,0.65-1.536V73.411z"/>
<path fill="#FD4F00" d="M76.728,83.246l-1.365-3.35h-6.314l-1.365,3.35h-3.35l6.4-15.04h3.029l6.401,15.04H76.728z M72.205,72.152
	l-1.984,4.843h3.968L72.205,72.152z"/>
<path fill="#FD4F00" d="M94.391,81.944c-0.412,0.327-0.863,0.607-1.354,0.843s-1.027,0.412-1.61,0.532
	c-0.584,0.122-1.237,0.183-1.963,0.183c-1.096,0-2.112-0.2-3.051-0.598c-0.938-0.398-1.749-0.941-2.433-1.632
	c-0.682-0.689-1.215-1.505-1.6-2.442c-0.384-0.938-0.575-1.942-0.575-3.008v-0.043c0-1.067,0.191-2.065,0.575-2.997
	c0.385-0.932,0.918-1.75,1.6-2.454c0.684-0.704,1.501-1.259,2.454-1.664c0.953-0.405,2.005-0.607,3.157-0.607
	c0.697,0,1.334,0.057,1.909,0.17c0.576,0.115,1.1,0.271,1.568,0.47c0.47,0.199,0.903,0.441,1.301,0.726
	c0.398,0.285,0.769,0.597,1.11,0.938l-2.091,2.411c-0.583-0.526-1.177-0.938-1.782-1.237c-0.604-0.298-1.283-0.448-2.037-0.448
	c-0.626,0-1.205,0.121-1.738,0.362c-0.533,0.242-0.992,0.576-1.376,1.002c-0.385,0.427-0.684,0.921-0.896,1.483
	c-0.213,0.563-0.319,1.163-0.319,1.803v0.042c0,0.64,0.106,1.245,0.319,1.814c0.213,0.568,0.509,1.066,0.887,1.493
	c0.376,0.426,0.831,0.765,1.364,1.014c0.534,0.248,1.12,0.373,1.76,0.373c0.854,0,1.575-0.157,2.166-0.47
	c0.589-0.313,1.177-0.739,1.76-1.28l2.091,2.112C95.201,81.248,94.804,81.617,94.391,81.944z"/>
<path fill="#FD4F00" d="M129.526,78.723c-0.385,0.91-0.928,1.699-1.632,2.368s-1.544,1.194-2.518,1.579
	c-0.974,0.384-2.045,0.576-3.211,0.576h-5.823V68.313h5.823c1.166,0,2.237,0.188,3.211,0.565c0.974,0.376,1.813,0.899,2.518,1.568
	s1.247,1.454,1.632,2.357c0.384,0.903,0.576,1.881,0.576,2.933v0.042C130.103,76.832,129.91,77.813,129.526,78.723z M126.668,75.779
	c0-0.654-0.11-1.258-0.331-1.813c-0.22-0.554-0.526-1.031-0.917-1.429c-0.392-0.397-0.864-0.707-1.419-0.928
	c-0.555-0.22-1.166-0.331-1.835-0.331h-2.538v9.003h2.538c0.669,0,1.28-0.106,1.835-0.32c0.555-0.213,1.027-0.519,1.419-0.917
	c0.391-0.398,0.697-0.867,0.917-1.408c0.221-0.54,0.331-1.145,0.331-1.813V75.779z"/>
<path fill="#FD4F00" d="M133.026,83.246V68.313h11.242v2.923h-8v3.029h7.04v2.923h-7.04v3.136h8.106v2.923H133.026z"/>
</svg>
