<?xml version="1.0" encoding="UTF-8"?>
<svg id="Layer_1" xmlns="http://www.w3.org/2000/svg" version="1.1" viewBox="0 0 2000 340.4">
  <!-- Generator: Adobe Illustrator 29.0.1, SVG Export Plug-In . SVG Version: 2.1.0 Build 192)  -->
  <defs>
    <style>
      .st0 {
        fill: #8a2432;
        fill-rule: evenodd;
      }
    </style>
  </defs>
  <g>
    <path class="st0" d="M794.2,164.4C794.2,73.8,720.7.3,630.1.3h-68v-.3h-135.6c-6.4,0-11.5,5.2-11.5,11.5v305.8c0,6.4,5.2,11.5,11.5,11.5h135.6v-.3h68c90.7,0,164.1-73.5,164.1-164.1h0ZM494.2,73.6h135.6c50.2,0,90.9,40.7,90.9,90.9h0c0,50.2-40.7,90.9-90.9,90.9h-135.6c-3.2,0-5.8-2.6-5.8-5.8V79.3c0-3.2,2.6-5.8,5.8-5.8Z"/>
    <path class="st0" d="M1042.5,67.4l-30.5-60.7c-2-3.9-5.9-6.3-10.3-6.3h-64c-4.4,0-8.3,2.5-10.3,6.3l-25.5,50.8-128.5,254.5c-3.9,7.7,1.7,16.7,10.3,16.7h59.9c4.3,0,8.3-2.4,10.3-6.3l110.7-219.4c2.1-4.2,8.2-4.2,10.3,0l110.7,219.4c2,3.9,5.9,6.3,10.3,6.3h59.9c8.6,0,14.2-9,10.3-16.7l-123.5-244.5Z"/>
    <path class="st0" d="M279.9,328.9H25.1c-6.4,0-11.5-5.2-11.5-11.5v-50.5c0-6.4,5.2-11.5,11.5-11.5h254.9c14.9,0,27.1-12.1,27.1-27.1h0c0-14.9-12.1-27.1-27.1-27.1h-97.5s-17.3,0-17.3,0h-64.6C45,201.2,0,156.2,0,100.6h0C0,45,45,0,100.6,0h64.6s17.3,0,17.3,0h174C362.9,0,368,5.2,368,11.5v50.5c0,6.4-5.2,11.5-11.5,11.5H100.6c-14.9,0-27.1,12.1-27.1,27.1h0c0,14.9,12.1,27.1,27.1,27.1h179.3c55.6,0,100.6,45,100.6,100.6h0c0,55.6-45,100.6-100.6,100.6Z"/>
  </g>
  <g>
    <path d="M1321.8.1h49.4v10.8h-36.9v18.7h32.3v10.2h-32.3v31.7h-12.5V.1Z"/>
    <path d="M1381.2.1h12.5v60.7h36.4v10.8h-48.9V.1Z"/>
    <path d="M1437.9.1h12.5v41.7c0,2.4.1,4.8.3,7.3.2,2.5.9,4.7,2,6.7,1.1,2,2.8,3.6,5,4.9,2.2,1.3,5.4,1.9,9.5,1.9s7.2-.6,9.5-1.9c2.2-1.3,3.9-2.9,5-4.9,1.1-2,1.8-4.2,2-6.7.2-2.5.4-4.9.4-7.3V.1h12.5v45.8c0,4.6-.7,8.6-2.1,12-1.4,3.4-3.4,6.3-6,8.6-2.6,2.3-5.7,4-9.3,5.2-3.6,1.1-7.6,1.7-12,1.7s-8.4-.6-12-1.7c-3.6-1.1-6.7-2.9-9.3-5.2-2.6-2.3-4.6-5.2-6-8.6-1.4-3.4-2.1-7.4-2.1-12V.1Z"/>
    <path d="M1511,.1h12.5v71.5h-12.5V.1Z"/>
    <path d="M1538.8.1h29.6c5.5,0,10.2.9,14.2,2.8,4,1.9,7.3,4.4,9.8,7.7,2.5,3.2,4.4,7,5.7,11.4,1.2,4.3,1.9,9,1.9,13.9s-.6,9.6-1.9,13.9c-1.2,4.3-3.1,8.1-5.7,11.4-2.5,3.2-5.8,5.8-9.8,7.7-4,1.9-8.7,2.8-14.2,2.8h-29.6V.1ZM1551.3,61.4h12.3c4.9,0,8.9-.7,12-2,3.1-1.3,5.5-3.1,7.3-5.4,1.8-2.3,3-5,3.6-8.1.6-3.1.9-6.5.9-10.1s-.3-7-.9-10.1c-.6-3.1-1.8-5.8-3.6-8.1-1.8-2.3-4.2-4.1-7.3-5.4-3.1-1.3-7.1-2-12-2h-12.3v51.1Z"/>
    <path d="M1639,.1h31.5c5.1,0,9.2.7,12.4,2.2,3.2,1.5,5.7,3.3,7.4,5.5,1.7,2.2,2.9,4.6,3.6,7.2.6,2.6.9,5,.9,7.2s-.3,4.6-.9,7.2c-.6,2.6-1.8,5-3.6,7.2-1.7,2.2-4.2,4-7.4,5.5-3.2,1.4-7.3,2.2-12.4,2.2h-19v27.4h-12.5V.1ZM1651.5,34h18.3c1.4,0,2.8-.2,4.3-.6,1.5-.4,2.8-1.1,4.1-2,1.2-.9,2.2-2.1,3-3.6.8-1.5,1.2-3.4,1.2-5.7s-.3-4.3-1-5.8c-.7-1.5-1.6-2.8-2.7-3.7-1.1-.9-2.4-1.5-3.9-1.9-1.5-.3-3-.5-4.7-.5h-18.5v23.6Z"/>
    <path d="M1736.2-1.6c5.3,0,10.1,1,14.4,3,4.2,2,7.8,4.7,10.8,8.1,2.9,3.4,5.2,7.4,6.8,11.9,1.6,4.5,2.4,9.3,2.4,14.4s-.8,10-2.4,14.5c-1.6,4.5-3.8,8.5-6.8,11.9-2.9,3.4-6.5,6.1-10.8,8.1-4.2,2-9,3-14.4,3s-10.1-1-14.4-3c-4.2-2-7.8-4.7-10.8-8.1-2.9-3.4-5.2-7.4-6.8-11.9-1.6-4.5-2.4-9.4-2.4-14.5s.8-9.9,2.4-14.4c1.6-4.5,3.8-8.5,6.8-11.9,2.9-3.4,6.5-6.1,10.8-8.1,4.2-2,9-3,14.4-3ZM1736.2,8.7c-3.8,0-7.1.8-9.9,2.3-2.8,1.5-5,3.6-6.8,6.2-1.7,2.6-3,5.5-3.9,8.8-.8,3.3-1.3,6.6-1.3,10s.4,6.7,1.3,10c.8,3.3,2.1,6.2,3.9,8.8,1.7,2.6,4,4.6,6.8,6.2,2.8,1.5,6.1,2.3,9.9,2.3s7.1-.8,9.9-2.3c2.8-1.5,5-3.6,6.8-6.2,1.7-2.6,3-5.5,3.9-8.8.8-3.3,1.3-6.6,1.3-10s-.4-6.7-1.3-10c-.8-3.3-2.1-6.2-3.9-8.8-1.7-2.6-4-4.6-6.8-6.2-2.8-1.5-6.1-2.3-9.9-2.3Z"/>
    <path d="M1774.9.1h12.7l12.9,54.7h.2L1815.1.1h12.8l14,54.7h.2L1855.5.1h12.7l-19.7,71.5h-12.7l-14.3-54.7h-.2l-14.6,54.7h-12.9L1774.9.1Z"/>
    <path d="M1876.4.1h51.5v10.8h-39v18.7h36.1v10.2h-36.1v20.9h39.7v10.8h-52.2V.1Z"/>
    <path d="M1939.5.1h34.2c7.9,0,13.8,1.7,17.7,5.1,3.9,3.4,5.9,8.1,5.9,14.2s-.5,6.2-1.5,8.5c-1,2.2-2.2,4-3.5,5.4-1.3,1.4-2.7,2.4-4,3-1.3.6-2.3,1-2.9,1.2v.2c1.1.1,2.2.5,3.5,1,1.2.5,2.4,1.4,3.5,2.6,1.1,1.2,2,2.7,2.7,4.6.7,1.9,1,4.2,1,7,0,4.2.3,8,1,11.5.6,3.4,1.6,5.9,3,7.4h-13.4c-.9-1.5-1.5-3.2-1.7-5.1-.2-1.9-.2-3.7-.2-5.4,0-3.3-.2-6.1-.6-8.5-.4-2.4-1.1-4.3-2.2-5.9-1.1-1.6-2.5-2.7-4.4-3.5-1.8-.7-4.2-1.1-7.1-1.1h-18.4v29.4h-12.5V.1ZM1952,32.7h20.5c4,0,7-1,9.1-2.9,2.1-1.9,3.1-4.8,3.1-8.6s-.3-4.1-1-5.6c-.7-1.4-1.6-2.6-2.8-3.4-1.2-.8-2.5-1.3-4-1.6-1.5-.3-3.1-.4-4.7-.4h-20.3v22.3Z"/>
    <path d="M1370.1,129.8c-.5-2.1-1.3-4-2.2-5.7-.9-1.7-2.1-3.2-3.6-4.5-1.5-1.3-3.2-2.3-5.2-3-2-.7-4.3-1.1-6.9-1.1-3.8,0-7.1.8-9.9,2.3-2.8,1.5-5,3.6-6.8,6.2-1.7,2.6-3,5.5-3.9,8.8-.8,3.3-1.3,6.6-1.3,10s.4,6.7,1.3,10c.8,3.3,2.1,6.2,3.9,8.8,1.7,2.6,4,4.6,6.8,6.2,2.8,1.5,6.1,2.3,9.9,2.3s5.3-.5,7.4-1.5c2.1-1,4-2.3,5.5-4,1.5-1.7,2.7-3.7,3.6-6,.9-2.3,1.4-4.7,1.7-7.3h12.2c-.3,4.3-1.2,8.2-2.8,11.7-1.6,3.5-3.7,6.6-6.4,9.2-2.7,2.6-5.8,4.6-9.4,6-3.6,1.4-7.6,2.1-11.9,2.1s-10.1-1-14.4-3c-4.2-2-7.8-4.7-10.8-8.1-2.9-3.4-5.2-7.4-6.8-11.9-1.6-4.5-2.4-9.4-2.4-14.5s.8-9.9,2.4-14.4c1.6-4.5,3.8-8.5,6.8-11.9,2.9-3.4,6.5-6.1,10.8-8.1,4.2-2,9-3,14.4-3s7.8.6,11.3,1.7c3.5,1.1,6.7,2.7,9.4,4.8,2.7,2.1,4.9,4.7,6.6,7.7,1.7,3,2.7,6.4,3.1,10.3h-12.5Z"/>
    <path d="M1424.5,105.4c5.3,0,10.1,1,14.4,3,4.2,2,7.8,4.7,10.8,8.1,2.9,3.4,5.2,7.4,6.8,11.9,1.6,4.5,2.4,9.3,2.4,14.4s-.8,10-2.4,14.5c-1.6,4.5-3.8,8.5-6.8,11.9-2.9,3.4-6.5,6.1-10.8,8.1-4.2,2-9,3-14.4,3s-10.1-1-14.4-3c-4.2-2-7.8-4.7-10.8-8.1-2.9-3.4-5.2-7.4-6.8-11.9-1.6-4.5-2.4-9.4-2.4-14.5s.8-9.9,2.4-14.4c1.6-4.5,3.8-8.5,6.8-11.9,2.9-3.4,6.5-6.1,10.8-8.1,4.2-2,9-3,14.4-3ZM1424.5,115.6c-3.8,0-7.1.8-9.9,2.3-2.8,1.5-5,3.6-6.8,6.2-1.7,2.6-3,5.5-3.9,8.8-.8,3.3-1.3,6.6-1.3,10s.4,6.7,1.3,10c.8,3.3,2.1,6.2,3.9,8.8,1.7,2.6,4,4.6,6.8,6.2,2.8,1.5,6.1,2.3,9.9,2.3s7.1-.8,9.9-2.3c2.8-1.5,5-3.6,6.8-6.2,1.7-2.6,3-5.5,3.9-8.8.8-3.3,1.3-6.6,1.3-10s-.4-6.7-1.3-10c-.8-3.3-2.1-6.2-3.9-8.8-1.7-2.6-4-4.6-6.8-6.2-2.8-1.5-6.1-2.3-9.9-2.3Z"/>
    <path d="M1470,107.1h17.6l19.7,56h.2l19.2-56h17.4v71.5h-11.9v-55.2h-.2l-19.8,55.2h-10.3l-19.8-55.2h-.2v55.2h-11.9v-71.5Z"/>
    <path d="M1559.2,107.1h31.5c5.1,0,9.2.7,12.4,2.2,3.2,1.5,5.7,3.3,7.4,5.5,1.7,2.2,2.9,4.6,3.6,7.2.6,2.6.9,5,.9,7.2s-.3,4.6-.9,7.2c-.6,2.6-1.8,5-3.6,7.2-1.7,2.2-4.2,4-7.4,5.5-3.2,1.4-7.3,2.2-12.4,2.2h-19v27.4h-12.5v-71.5ZM1571.8,140.9h18.3c1.4,0,2.8-.2,4.3-.6,1.5-.4,2.8-1.1,4.1-2,1.2-.9,2.2-2.1,3-3.6.8-1.5,1.2-3.4,1.2-5.7s-.3-4.3-1-5.8c-.7-1.5-1.6-2.8-2.7-3.7-1.1-.9-2.4-1.5-3.9-1.9-1.5-.3-3-.5-4.7-.5h-18.5v23.6Z"/>
    <path d="M1637.8,107.1h13.3l27.5,71.5h-13.4l-6.7-18.9h-28.5l-6.7,18.9h-12.9l27.4-71.5ZM1633.4,150.1h21.8l-10.7-30.7h-.3l-10.8,30.7Z"/>
    <path d="M1684.9,107.1h13.2l32.7,52.7h.2v-52.7h11.9v71.5h-13.2l-32.5-52.6h-.3v52.6h-11.9v-71.5Z"/>
    <path d="M1776.4,150.5l-26.8-43.5h14.5l18.9,32,18.6-32h14l-26.7,43.5v28h-12.5v-28Z"/>
  </g>
  <rect x="1238.2" y=".5" width="6.2" height="328.1"/>
  <g>
    <path d="M1328.9,213.5v19.7h24.2v-19.7h6.1v45.9h-6.1v-21h-24.2v21h-6.1v-45.9h6.1Z"/>
    <path d="M1381.3,263.8c-.6,1.6-1.3,3-1.9,4.1-.6,1.1-1.3,2-2.1,2.7-.8.7-1.6,1.2-2.5,1.5-.9.3-2,.5-3.2.5s-1.3,0-1.9-.1-1.3-.2-1.9-.5v-5c.5.2,1,.4,1.6.5.6.1,1.1.2,1.6.2,1.1,0,2-.3,2.8-.8.7-.5,1.3-1.3,1.7-2.3l2.3-5.6-13.2-33h6.2l9.7,27.2h.1l9.3-27.2h5.8l-14.5,37.7Z"/>
    <path d="M1424.6,259.4v-4.5h-.1c-.9,1.8-2.3,3.2-4.2,4-1.9.8-4,1.2-6.4,1.2s-4.8-.5-6.7-1.4c-1.9-.9-3.5-2.2-4.8-3.8-1.3-1.6-2.2-3.4-2.9-5.5-.6-2.1-1-4.3-1-6.7s.3-4.6.9-6.7c.6-2.1,1.6-3.9,2.8-5.5,1.3-1.6,2.8-2.8,4.8-3.7,1.9-.9,4.1-1.4,6.7-1.4s1.8,0,2.8.3c1,.2,2,.5,3,.9,1,.4,1.9.9,2.8,1.6.9.7,1.6,1.5,2.2,2.5h.1v-17.1h5.5v45.9h-5.5ZM1405,247.6c.4,1.5,1,2.8,1.9,3.9.8,1.2,1.9,2.1,3.2,2.8,1.3.7,2.8,1,4.6,1s3.4-.4,4.7-1.1c1.3-.7,2.3-1.7,3.1-2.9.8-1.2,1.4-2.5,1.8-4,.4-1.5.5-3,.5-4.6s-.2-3.2-.6-4.7c-.4-1.5-1-2.9-1.8-4-.8-1.2-1.9-2.1-3.2-2.8-1.3-.7-2.9-1.1-4.8-1.1s-3.4.4-4.7,1.1c-1.3.7-2.3,1.7-3.1,2.9-.8,1.2-1.3,2.6-1.7,4.1-.3,1.5-.5,3.1-.5,4.8s.2,3.1.6,4.5Z"/>
    <path d="M1443.4,226.2v7h.1c1.3-2.7,3-4.7,4.9-6,1.9-1.3,4.4-1.9,7.3-1.8v5.8c-2.2,0-4,.3-5.6.9-1.5.6-2.8,1.5-3.7,2.6-.9,1.2-1.6,2.6-2.1,4.2-.4,1.6-.6,3.5-.6,5.7v14.8h-5.5v-33.2h5.1Z"/>
    <path d="M1489.3,259.3c-.9.6-2.2.8-3.9.8s-2.5-.4-3.4-1.2c-.8-.8-1.3-2.1-1.3-3.9-1.5,1.8-3.2,3.1-5.2,3.9-2,.8-4.1,1.2-6.5,1.2s-2.9-.2-4.3-.5c-1.3-.3-2.5-.9-3.5-1.6-1-.7-1.8-1.7-2.3-2.9-.6-1.2-.9-2.6-.9-4.3s.3-3.4,1-4.6,1.5-2.2,2.5-2.9c1-.7,2.2-1.3,3.6-1.7,1.3-.4,2.7-.7,4.1-1,1.5-.3,2.9-.5,4.3-.7,1.4-.1,2.5-.4,3.6-.6,1-.3,1.8-.7,2.4-1.2.6-.5.9-1.3.9-2.3s-.2-2.2-.7-2.9c-.5-.7-1-1.3-1.7-1.7-.7-.4-1.5-.6-2.4-.8-.9-.1-1.7-.2-2.6-.2-2.3,0-4.2.4-5.8,1.3-1.5.9-2.4,2.5-2.5,5h-5.5c0-2.1.5-3.8,1.3-5.2.8-1.4,1.8-2.6,3.1-3.4,1.3-.9,2.8-1.5,4.4-1.9,1.6-.4,3.4-.6,5.3-.6s3,.1,4.5.3c1.5.2,2.8.7,4,1.3,1.2.7,2.2,1.6,2.9,2.8.7,1.2,1.1,2.8,1.1,4.7v17.1c0,1.3,0,2.2.2,2.8.1.6.7.9,1.5.9s1,0,1.7-.3v4.2ZM1480.4,242.2c-.7.5-1.6.9-2.7,1.1-1.1.2-2.3.4-3.5.6-1.2.2-2.5.3-3.7.5-1.2.2-2.4.5-3.3.9-1,.4-1.8,1-2.4,1.8-.6.8-.9,1.9-.9,3.2s.2,1.7.5,2.3c.4.6.8,1.1,1.4,1.5.6.4,1.3.7,2,.8.8.2,1.6.3,2.4.3,1.8,0,3.3-.2,4.6-.7s2.3-1.1,3.1-1.9c.8-.7,1.4-1.6,1.8-2.4.4-.9.6-1.7.6-2.5v-5.6Z"/>
    <path d="M1516.7,259.4v-5.3h-.1c-1.2,2.1-2.6,3.6-4.4,4.5-1.8,1-3.9,1.4-6.4,1.4s-4-.3-5.5-.9c-1.5-.6-2.6-1.4-3.5-2.5-.9-1.1-1.5-2.3-1.9-3.8s-.5-3.1-.5-4.9v-21.8h5.5v22.5c0,2.1.6,3.7,1.8,4.9,1.2,1.2,2.8,1.8,4.9,1.8s3.1-.3,4.3-.8c1.2-.5,2.2-1.2,3.1-2.2.8-.9,1.4-2,1.8-3.3.4-1.3.6-2.6.6-4.1v-18.8h5.5v33.2h-5.1Z"/>
    <path d="M1535.9,213.5v45.9h-5.5v-45.9h5.5Z"/>
    <path d="M1544.7,220.2v-6.7h5.5v6.7h-5.5ZM1550.2,226.2v33.2h-5.5v-33.2h5.5Z"/>
    <path d="M1578.5,232c-1.4-1.2-3.2-1.7-5.5-1.7s-3.6.4-4.9,1.1c-1.3.7-2.4,1.7-3.2,2.9-.8,1.2-1.4,2.6-1.7,4.1-.3,1.6-.5,3.2-.5,4.8s.2,3,.5,4.5c.4,1.5.9,2.8,1.7,3.9.8,1.1,1.8,2,3,2.7,1.2.7,2.7,1,4.4,1,2.7,0,4.8-.7,6.3-2.1,1.5-1.4,2.5-3.4,2.8-6h5.6c-.6,4.1-2.1,7.3-4.6,9.5-2.5,2.2-5.8,3.3-10.1,3.3s-4.8-.4-6.7-1.2c-2-.8-3.6-2-4.9-3.5-1.3-1.5-2.3-3.3-3-5.4-.7-2.1-1-4.4-1-6.8s.3-4.8,1-7c.6-2.2,1.6-4,2.9-5.7,1.3-1.6,2.9-2.9,4.9-3.8,2-.9,4.3-1.4,6.9-1.4s3.7.2,5.3.7c1.6.5,3.1,1.2,4.4,2.1,1.3.9,2.3,2.1,3.1,3.6.8,1.4,1.3,3.1,1.5,5.1h-5.7c-.4-2.1-1.3-3.7-2.7-4.9Z"/>
    <path d="M1597.3,252c.5.8,1.2,1.5,2,2,.8.5,1.8.8,2.8,1.1,1,.2,2.1.3,3.2.3s1.8,0,2.7-.2c.9-.1,1.8-.4,2.6-.7.8-.3,1.4-.8,2-1.5.5-.7.8-1.5.8-2.5s-.5-2.5-1.6-3.2c-1.1-.7-2.4-1.3-4-1.8-1.6-.5-3.4-.9-5.2-1.2-1.9-.4-3.6-.9-5.2-1.5-1.6-.7-2.9-1.6-4-2.8-1.1-1.2-1.6-2.9-1.6-5s.4-3.1,1.1-4.3c.8-1.2,1.7-2.2,2.9-2.9,1.2-.7,2.5-1.3,4-1.7,1.5-.4,2.9-.5,4.4-.5s3.6.2,5.2.5c1.6.3,3,.9,4.2,1.7,1.2.8,2.2,1.9,2.9,3.2.7,1.4,1.2,3,1.3,5h-5.5c0-1.1-.4-2-.8-2.7-.5-.7-1.1-1.3-1.8-1.7-.7-.4-1.5-.7-2.4-.9-.9-.2-1.8-.3-2.7-.3s-1.6,0-2.5.2c-.8.1-1.6.4-2.3.7-.7.3-1.2.7-1.7,1.3-.4.5-.6,1.2-.6,2.1s.3,1.7,1,2.3c.7.6,1.5,1.1,2.5,1.5,1,.4,2.2.7,3.5,1,1.3.3,2.6.6,3.9.9,1.4.3,2.7.7,4,1.1,1.3.4,2.5,1,3.5,1.7,1,.7,1.8,1.6,2.4,2.7.6,1.1.9,2.4.9,4s-.4,3.7-1.3,5c-.8,1.3-1.9,2.4-3.3,3.2-1.4.8-2.9,1.4-4.6,1.7-1.7.3-3.4.5-5,.5s-3.6-.2-5.3-.6c-1.7-.4-3.1-1-4.4-1.9-1.3-.9-2.3-2-3.1-3.5-.8-1.4-1.2-3.2-1.3-5.2h5.5c0,1.2.3,2.2.8,3.1Z"/>
    <path d="M1633.6,252.3v6.5c0,2.4-.6,4.5-1.7,6.3-1.1,1.8-2.9,3-5.4,3.7v-3.2c.7-.3,1.3-.6,1.8-1.1.5-.5.9-1,1.2-1.6.3-.6.5-1.2.6-1.8.1-.6.1-1.2,0-1.7h-3.8v-7.1h7.1Z"/>
    <path d="M1682,213.5c4.6,0,8.1,1.2,10.5,3.6,2.4,2.4,3.6,5.7,3.6,10s-1.2,7.6-3.6,10c-2.4,2.4-5.9,3.6-10.5,3.5h-14v18.8h-6.1v-45.9h20.1ZM1680,235.5c3.5,0,6-.7,7.6-2.1,1.6-1.5,2.4-3.6,2.4-6.3s-.8-4.8-2.4-6.3c-1.6-1.4-4.1-2.2-7.6-2.2h-12v16.8h12Z"/>
    <path d="M1707.8,226.2v5.3h.1c2.3-4,5.9-6,10.8-6s4,.3,5.5.9c1.5.6,2.6,1.4,3.5,2.5.9,1.1,1.5,2.3,1.9,3.8.4,1.5.5,3.1.5,4.9v21.8h-5.5v-22.5c0-2.1-.6-3.7-1.8-4.9-1.2-1.2-2.9-1.8-5-1.8s-3.1.3-4.3.8c-1.2.5-2.2,1.2-3.1,2.2-.8.9-1.4,2-1.8,3.3-.4,1.3-.6,2.6-.6,4.1v18.8h-5.5v-33.2h5.1Z"/>
    <path d="M1761.9,257.3c-2.5,1.9-5.6,2.8-9.4,2.8s-5-.4-6.9-1.3c-1.9-.9-3.6-2.1-4.9-3.6-1.3-1.5-2.3-3.4-3-5.5-.7-2.1-1-4.5-1.1-7,0-2.5.4-4.8,1.2-6.9.8-2.1,1.9-3.9,3.2-5.5,1.4-1.5,3-2.7,5-3.6,1.9-.9,4-1.3,6.3-1.3s5.4.6,7.4,1.8c1.9,1.2,3.5,2.8,4.7,4.7,1.2,1.9,2,3.9,2.4,6.2.5,2.2.6,4.3.5,6.4h-24.9c0,1.5.1,2.8.5,4.1.4,1.3,1,2.5,1.9,3.5s2,1.8,3.3,2.4c1.3.6,2.9.9,4.7.9s4.2-.5,5.7-1.6c1.5-1.1,2.5-2.7,2.9-4.9h5.4c-.7,3.7-2.3,6.5-4.8,8.4ZM1760.6,235.9c-.5-1.2-1.2-2.2-2-3-.8-.8-1.8-1.5-3-2-1.1-.5-2.4-.7-3.8-.7s-2.7.2-3.8.7c-1.1.5-2.1,1.2-2.9,2-.8.9-1.5,1.9-1.9,3-.5,1.1-.7,2.3-.8,3.6h19.1c0-1.3-.4-2.5-.9-3.7Z"/>
    <path d="M1795.2,259.4v-5.3h-.1c-1.2,2.1-2.6,3.6-4.4,4.5-1.8,1-3.9,1.4-6.4,1.4s-4-.3-5.5-.9c-1.5-.6-2.6-1.4-3.5-2.5-.9-1.1-1.5-2.3-1.9-3.8-.4-1.5-.5-3.1-.5-4.9v-21.8h5.5v22.5c0,2.1.6,3.7,1.8,4.9,1.2,1.2,2.8,1.8,4.9,1.8s3.1-.3,4.3-.8c1.2-.5,2.2-1.2,3.1-2.2.8-.9,1.4-2,1.8-3.3.4-1.3.6-2.6.6-4.1v-18.8h5.5v33.2h-5.1Z"/>
    <path d="M1813.7,226.2v4.9h.1c2.5-3.8,6.1-5.7,10.7-5.7s3.9.4,5.6,1.3c1.7.9,2.9,2.3,3.5,4.4,1.1-1.8,2.6-3.2,4.4-4.2,1.8-1,3.8-1.5,6-1.5s3.2.2,4.5.5c1.3.4,2.5.9,3.5,1.7,1,.8,1.7,1.8,2.2,3,.5,1.2.8,2.7.8,4.4v24.4h-5.5v-21.8c0-1,0-2-.3-2.9-.2-.9-.5-1.7-1-2.3-.5-.7-1.1-1.2-2-1.6-.8-.4-1.9-.6-3.2-.6-2.7,0-4.8.8-6.4,2.3-1.5,1.5-2.3,3.6-2.3,6.2v20.7h-5.5v-21.8c0-1.1,0-2.1-.3-3s-.5-1.7-1-2.3c-.5-.7-1.1-1.2-1.9-1.5-.8-.4-1.8-.5-3.1-.5s-2.9.3-4.1,1c-1.1.6-2.1,1.4-2.8,2.3-.7.9-1.2,1.8-1.5,2.8-.3,1-.5,1.8-.5,2.4v20.7h-5.5v-33.2h5.1Z"/>
    <path d="M1892.8,259.3c-.9.6-2.2.8-3.9.8s-2.5-.4-3.4-1.2c-.8-.8-1.3-2.1-1.3-3.9-1.5,1.8-3.2,3.1-5.2,3.9-2,.8-4.1,1.2-6.5,1.2s-2.9-.2-4.3-.5c-1.3-.3-2.5-.9-3.5-1.6-1-.7-1.8-1.7-2.3-2.9-.6-1.2-.9-2.6-.9-4.3s.3-3.4,1-4.6c.6-1.2,1.5-2.2,2.5-2.9,1-.7,2.2-1.3,3.6-1.7,1.3-.4,2.7-.7,4.1-1,1.5-.3,2.9-.5,4.3-.7,1.4-.1,2.5-.4,3.6-.6,1-.3,1.8-.7,2.4-1.2.6-.5.9-1.3.9-2.3s-.2-2.2-.7-2.9c-.5-.7-1-1.3-1.7-1.7-.7-.4-1.5-.6-2.4-.8-.9-.1-1.7-.2-2.6-.2-2.3,0-4.2.4-5.8,1.3-1.5.9-2.4,2.5-2.5,5h-5.5c0-2.1.5-3.8,1.3-5.2.8-1.4,1.8-2.6,3.1-3.4,1.3-.9,2.8-1.5,4.4-1.9,1.6-.4,3.4-.6,5.3-.6s3,.1,4.5.3c1.5.2,2.8.7,4,1.3,1.2.7,2.2,1.6,2.9,2.8.7,1.2,1.1,2.8,1.1,4.7v17.1c0,1.3,0,2.2.2,2.8.1.6.7.9,1.5.9s1,0,1.7-.3v4.2ZM1884,242.2c-.7.5-1.6.9-2.7,1.1s-2.3.4-3.5.6c-1.2.2-2.5.3-3.7.5-1.2.2-2.4.5-3.3.9-1,.4-1.8,1-2.4,1.8-.6.8-.9,1.9-.9,3.2s.2,1.7.5,2.3c.4.6.8,1.1,1.4,1.5.6.4,1.3.7,2,.8.8.2,1.6.3,2.4.3,1.8,0,3.3-.2,4.6-.7s2.3-1.1,3.1-1.9c.8-.7,1.4-1.6,1.8-2.4.4-.9.6-1.7.6-2.5v-5.6Z"/>
    <path d="M1912.1,226.2v4.8h-6.6v20.6c0,.6,0,1.2.2,1.5.1.4.3.7.6.9.3.2.7.4,1.3.4.5,0,1.2,0,2.1,0h2.5v4.8h-4.2c-1.4,0-2.6,0-3.6-.3-1-.2-1.8-.5-2.4-1.1-.6-.5-1.1-1.2-1.4-2.2s-.5-2.2-.5-3.7v-21.1h-5.7v-4.8h5.7v-10h5.5v10h6.6Z"/>
    <path d="M1918.5,220.2v-6.7h5.5v6.7h-5.5ZM1923.9,226.2v33.2h-5.5v-33.2h5.5Z"/>
    <path d="M1952.3,232c-1.4-1.2-3.2-1.7-5.5-1.7s-3.6.4-4.9,1.1c-1.3.7-2.4,1.7-3.2,2.9-.8,1.2-1.4,2.6-1.7,4.1-.3,1.6-.5,3.2-.5,4.8s.2,3,.5,4.5c.4,1.5.9,2.8,1.7,3.9.8,1.1,1.8,2,3,2.7,1.2.7,2.7,1,4.4,1,2.7,0,4.8-.7,6.3-2.1,1.5-1.4,2.5-3.4,2.8-6h5.6c-.6,4.1-2.1,7.3-4.6,9.5-2.5,2.2-5.8,3.3-10.1,3.3s-4.8-.4-6.7-1.2c-2-.8-3.6-2-4.9-3.5-1.3-1.5-2.3-3.3-3-5.4-.7-2.1-1-4.4-1-6.8s.3-4.8,1-7c.6-2.2,1.6-4,2.9-5.7,1.3-1.6,2.9-2.9,4.9-3.8,2-.9,4.3-1.4,6.9-1.4s3.7.2,5.3.7c1.6.5,3.1,1.2,4.4,2.1,1.3.9,2.3,2.1,3.1,3.6.8,1.4,1.3,3.1,1.5,5.1h-5.7c-.4-2.1-1.3-3.7-2.7-4.9Z"/>
    <path d="M1971.1,252c.5.8,1.2,1.5,2,2,.8.5,1.8.8,2.8,1.1,1,.2,2.1.3,3.2.3s1.8,0,2.7-.2c.9-.1,1.8-.4,2.6-.7.8-.3,1.4-.8,2-1.5.5-.7.8-1.5.8-2.5s-.5-2.5-1.6-3.2c-1.1-.7-2.4-1.3-4-1.8-1.6-.5-3.4-.9-5.2-1.2-1.9-.4-3.6-.9-5.2-1.5-1.6-.7-2.9-1.6-4-2.8-1.1-1.2-1.6-2.9-1.6-5s.4-3.1,1.1-4.3c.8-1.2,1.7-2.2,2.9-2.9,1.2-.7,2.5-1.3,4-1.7,1.5-.4,2.9-.5,4.4-.5s3.6.2,5.2.5c1.6.3,3,.9,4.2,1.7,1.2.8,2.2,1.9,2.9,3.2.7,1.4,1.2,3,1.3,5h-5.5c0-1.1-.4-2-.8-2.7-.5-.7-1.1-1.3-1.8-1.7-.7-.4-1.5-.7-2.4-.9-.9-.2-1.8-.3-2.7-.3s-1.6,0-2.5.2c-.8.1-1.6.4-2.3.7-.7.3-1.2.7-1.7,1.3-.4.5-.6,1.2-.6,2.1s.3,1.7,1,2.3c.7.6,1.5,1.1,2.5,1.5,1,.4,2.2.7,3.5,1,1.3.3,2.6.6,3.9.9,1.4.3,2.7.7,4,1.1,1.3.4,2.5,1,3.5,1.7,1,.7,1.8,1.6,2.4,2.7.6,1.1.9,2.4.9,4s-.4,3.7-1.3,5c-.8,1.3-1.9,2.4-3.3,3.2-1.4.8-2.9,1.4-4.6,1.7-1.7.3-3.4.5-5,.5s-3.6-.2-5.3-.6c-1.7-.4-3.1-1-4.4-1.9s-2.3-2-3.1-3.5c-.8-1.4-1.2-3.2-1.3-5.2h5.5c0,1.2.3,2.2.8,3.1Z"/>
    <path d="M1341.5,327.7c-2.4,1.1-4.8,1.6-7.4,1.6s-5.6-.5-7.5-1.4c-1.9-.9-3.3-2.1-4.4-3.4-1-1.3-1.7-2.7-2-4.1-.3-1.4-.5-2.6-.5-3.5,0-1.8.3-3.4.9-4.8.6-1.4,1.4-2.6,2.3-3.7,1-1.1,2.1-2.1,3.4-3,1.3-.9,2.7-1.7,4.1-2.5-.6-.9-1.3-1.8-1.9-2.6-.6-.8-1.2-1.6-1.6-2.5-.5-.8-.9-1.7-1.2-2.6-.3-.9-.4-2-.4-3.1s.2-2.4.7-3.6c.5-1.1,1.1-2.1,2-3,.9-.9,2-1.6,3.2-2.1,1.3-.5,2.8-.8,4.4-.8s2.8.2,4.1.6c1.4.4,2.5,1,3.6,1.8,1,.8,1.8,1.8,2.5,3,.6,1.2.9,2.5.9,4.1s-.2,2.6-.7,3.8c-.5,1.2-1.1,2.3-1.9,3.2-.8,1-1.7,1.9-2.8,2.7-1,.8-2.1,1.5-3.2,2.2l8.3,10.1c.9-2.4,1.4-4.8,1.5-7.1h5.2c-.1,1.4-.3,2.5-.4,3.5-.2,1-.3,1.9-.6,2.7s-.5,1.6-.9,2.4c-.3.8-.7,1.7-1.2,2.7l8.9,10.3h-7.1l-4.9-5.7c-1.4,2.1-3.2,3.8-5.6,4.8ZM1330.6,308.3c-1,.6-1.8,1.4-2.5,2.2-.7.8-1.3,1.7-1.7,2.7-.4,1-.6,2.2-.6,3.6s.2,2.2.7,3.2c.5,1,1.1,1.8,2,2.4.8.7,1.7,1.2,2.8,1.6,1,.4,2.1.6,3.2.6,2.1,0,4-.5,5.6-1.5,1.6-1,3-2.3,4.1-4l-10.5-12.7c-1.1.6-2.1,1.2-3.1,1.9ZM1337.5,298.9c.7-.5,1.4-1.1,2-1.7.6-.6,1.1-1.4,1.5-2.2.4-.8.6-1.7.6-2.7s-.5-2.5-1.4-3.4c-.9-1-2.2-1.4-3.9-1.4s-2.5.4-3.6,1.2c-1.1.8-1.7,2-1.7,3.7s.1,1.4.4,2.1c.3.7.6,1.4,1.1,2s.9,1.3,1.4,2c.5.6,1,1.3,1.5,1.9.6-.4,1.3-.9,2.1-1.4Z"/>
    <path d="M1412.8,282.7v5.1h-25.6v14.6h23.8v5.1h-23.8v15.9h25.8v5.1h-31.9v-45.9h31.7Z"/>
    <path d="M1424.6,295.3v5.3h.1c2.3-4,5.9-6,10.8-6s4,.3,5.5.9,2.6,1.4,3.5,2.5c.9,1.1,1.5,2.3,1.9,3.8.4,1.5.5,3.1.5,4.9v21.8h-5.5v-22.5c0-2.1-.6-3.7-1.8-4.9s-2.9-1.8-5-1.8-3.1.3-4.3.8c-1.2.5-2.2,1.2-3.1,2.2-.8.9-1.4,2-1.8,3.3-.4,1.3-.6,2.6-.6,4.1v18.8h-5.5v-33.2h5.1Z"/>
    <path d="M1480.1,337.9c-2.5,2.7-6.4,4-11.7,4s-3.1-.2-4.7-.5c-1.6-.3-3.1-.9-4.4-1.7-1.3-.8-2.4-1.8-3.2-3-.9-1.2-1.3-2.8-1.4-4.6h5.5c0,1,.4,1.8.9,2.5.6.7,1.3,1.2,2.1,1.7.8.4,1.7.7,2.7.9,1,.2,1.9.3,2.8.3,1.8,0,3.3-.3,4.6-.9,1.2-.6,2.3-1.5,3.1-2.6.8-1.1,1.4-2.4,1.8-4,.4-1.5.5-3.2.5-5.1v-2.2h-.1c-.9,2.1-2.4,3.6-4.3,4.5-1.9,1-3.9,1.4-6.1,1.4s-4.6-.4-6.5-1.3c-1.8-.9-3.4-2.1-4.6-3.6-1.2-1.5-2.2-3.3-2.8-5.3-.6-2-.9-4.2-.9-6.5s.3-4,.8-6.1c.5-2.1,1.4-4,2.6-5.7s2.8-3.1,4.8-4.2c2-1.1,4.4-1.6,7.3-1.6s4,.5,5.8,1.4c1.8.9,3.1,2.3,4.1,4.1h0v-4.8h5.1v30.4c0,5.4-1.2,9.5-3.7,12.2ZM1473.1,323c1.3-.7,2.3-1.7,3.1-3,.8-1.2,1.3-2.6,1.7-4.1.4-1.5.5-3.1.5-4.6s-.2-2.9-.5-4.3c-.3-1.4-.9-2.7-1.6-3.8-.7-1.1-1.7-2-2.9-2.7-1.2-.7-2.7-1-4.4-1s-3.3.3-4.5,1c-1.2.7-2.3,1.6-3.1,2.7-.8,1.1-1.4,2.4-1.7,3.9-.4,1.5-.5,3-.5,4.6s.2,3,.5,4.5c.3,1.5.8,2.9,1.5,4.1.7,1.2,1.7,2.2,2.9,3,1.2.8,2.7,1.1,4.5,1.1s3.3-.4,4.6-1.1Z"/>
    <path d="M1492.4,289.4v-6.7h5.5v6.7h-5.5ZM1497.8,295.3v33.2h-5.5v-33.2h5.5Z"/>
    <path d="M1511.5,295.3v5.3h.1c2.3-4,5.9-6,10.8-6s4,.3,5.5.9c1.5.6,2.6,1.4,3.5,2.5.9,1.1,1.5,2.3,1.9,3.8.4,1.5.5,3.1.5,4.9v21.8h-5.5v-22.5c0-2.1-.6-3.7-1.8-4.9-1.2-1.2-2.9-1.8-5-1.8s-3.1.3-4.3.8c-1.2.5-2.2,1.2-3.1,2.2-.8.9-1.4,2-1.8,3.3-.4,1.3-.6,2.6-.6,4.1v18.8h-5.5v-33.2h5.1Z"/>
    <path d="M1565.6,326.4c-2.5,1.9-5.6,2.8-9.4,2.8s-5-.4-6.9-1.3c-1.9-.9-3.6-2.1-4.9-3.6-1.3-1.5-2.3-3.4-3-5.5-.7-2.1-1-4.5-1.1-7,0-2.5.4-4.8,1.2-6.9.8-2.1,1.9-3.9,3.2-5.5,1.4-1.5,3-2.7,5-3.6s4-1.3,6.3-1.3,5.4.6,7.4,1.8c1.9,1.2,3.5,2.8,4.7,4.7,1.2,1.9,2,3.9,2.4,6.2.5,2.2.6,4.3.5,6.4h-24.9c0,1.5.1,2.8.5,4.1s1,2.5,1.9,3.5c.9,1,2,1.8,3.3,2.4,1.3.6,2.9.9,4.7.9s4.2-.5,5.7-1.6c1.5-1.1,2.5-2.7,2.9-4.9h5.4c-.7,3.7-2.3,6.5-4.8,8.4ZM1564.3,305.1c-.5-1.2-1.2-2.2-2-3-.8-.8-1.8-1.5-3-2-1.1-.5-2.4-.7-3.8-.7s-2.7.2-3.8.7c-1.1.5-2.1,1.2-2.9,2-.8.9-1.5,1.9-1.9,3-.5,1.1-.7,2.3-.8,3.6h19.1c0-1.3-.4-2.5-.9-3.7Z"/>
    <path d="M1600.1,326.4c-2.5,1.9-5.6,2.8-9.4,2.8s-5-.4-6.9-1.3c-1.9-.9-3.6-2.1-4.9-3.6-1.3-1.5-2.3-3.4-3-5.5-.7-2.1-1-4.5-1.1-7,0-2.5.4-4.8,1.2-6.9.8-2.1,1.9-3.9,3.2-5.5,1.4-1.5,3-2.7,5-3.6s4-1.3,6.3-1.3,5.4.6,7.4,1.8c1.9,1.2,3.5,2.8,4.7,4.7,1.2,1.9,2,3.9,2.4,6.2.5,2.2.6,4.3.5,6.4h-24.9c0,1.5.1,2.8.5,4.1s1,2.5,1.9,3.5,2,1.8,3.3,2.4c1.3.6,2.9.9,4.7.9s4.2-.5,5.7-1.6c1.5-1.1,2.5-2.7,2.9-4.9h5.4c-.7,3.7-2.3,6.5-4.8,8.4ZM1598.8,305.1c-.5-1.2-1.2-2.2-2-3-.8-.8-1.8-1.5-3-2-1.1-.5-2.4-.7-3.8-.7s-2.7.2-3.8.7c-1.1.5-2.1,1.2-2.9,2s-1.5,1.9-1.9,3c-.5,1.1-.7,2.3-.8,3.6h19.1c0-1.3-.4-2.5-.9-3.7Z"/>
    <path d="M1616,295.3v7h.1c1.3-2.7,3-4.7,4.9-6,1.9-1.3,4.4-1.9,7.3-1.8v5.8c-2.2,0-4,.3-5.6.9-1.5.6-2.8,1.5-3.7,2.6-.9,1.2-1.6,2.6-2.1,4.2-.4,1.6-.6,3.5-.6,5.7v14.8h-5.5v-33.2h5.1Z"/>
    <path d="M1632.8,289.4v-6.7h5.5v6.7h-5.5ZM1638.3,295.3v33.2h-5.5v-33.2h5.5Z"/>
    <path d="M1651.9,295.3v5.3h.1c2.3-4,5.9-6,10.8-6s4,.3,5.5.9c1.5.6,2.6,1.4,3.5,2.5s1.5,2.3,1.9,3.8.5,3.1.5,4.9v21.8h-5.5v-22.5c0-2.1-.6-3.7-1.8-4.9-1.2-1.2-2.9-1.8-5-1.8s-3.1.3-4.3.8c-1.2.5-2.2,1.2-3.1,2.2-.8.9-1.4,2-1.8,3.3-.4,1.3-.6,2.6-.6,4.1v18.8h-5.5v-33.2h5.1Z"/>
    <path d="M1707.4,337.9c-2.5,2.7-6.4,4-11.7,4s-3.1-.2-4.7-.5c-1.6-.3-3.1-.9-4.4-1.7-1.3-.8-2.4-1.8-3.2-3-.9-1.2-1.3-2.8-1.4-4.6h5.5c0,1,.4,1.8.9,2.5.6.7,1.3,1.2,2.1,1.7.8.4,1.7.7,2.7.9,1,.2,1.9.3,2.8.3,1.8,0,3.3-.3,4.6-.9,1.2-.6,2.3-1.5,3.1-2.6.8-1.1,1.4-2.4,1.8-4,.4-1.5.5-3.2.5-5.1v-2.2h-.1c-.9,2.1-2.4,3.6-4.3,4.5-1.9,1-3.9,1.4-6.1,1.4s-4.6-.4-6.5-1.3c-1.8-.9-3.4-2.1-4.6-3.6-1.2-1.5-2.2-3.3-2.8-5.3-.6-2-.9-4.2-.9-6.5s.3-4,.8-6.1c.5-2.1,1.4-4,2.6-5.7,1.2-1.7,2.8-3.1,4.8-4.2,2-1.1,4.4-1.6,7.3-1.6s4,.5,5.8,1.4c1.8.9,3.1,2.3,4.1,4.1h0v-4.8h5.1v30.4c0,5.4-1.2,9.5-3.7,12.2ZM1700.4,323c1.3-.7,2.3-1.7,3.1-3,.8-1.2,1.3-2.6,1.7-4.1.4-1.5.5-3.1.5-4.6s-.2-2.9-.5-4.3c-.3-1.4-.9-2.7-1.6-3.8-.7-1.1-1.7-2-2.9-2.7-1.2-.7-2.7-1-4.4-1s-3.3.3-4.5,1c-1.2.7-2.3,1.6-3.1,2.7-.8,1.1-1.4,2.4-1.7,3.9-.4,1.5-.5,3-.5,4.6s.2,3,.5,4.5c.3,1.5.8,2.9,1.5,4.1.7,1.2,1.7,2.2,2.9,3,1.2.8,2.7,1.1,4.5,1.1s3.3-.4,4.6-1.1Z"/>
  </g>
</svg>