<?xml version="1.0" encoding="UTF-8"?>
<svg xmlns="http://www.w3.org/2000/svg" version="1.1" width="400" height="400" viewBox="0 0 400 400"><rect x="0" y="0" width="400" height="400" fill="#ffffff"/><g transform="scale(19.048)"><g transform="translate(0,0)"><path fill-rule="evenodd" d="M9 0L9 1L8 1L8 3L9 3L9 4L8 4L8 8L6 8L6 9L7 9L7 10L5 10L5 9L4 9L4 8L3 8L3 9L2 9L2 8L0 8L0 13L1 13L1 11L2 11L2 13L3 13L3 11L2 11L2 10L4 10L4 11L7 11L7 12L6 12L6 13L7 13L7 12L8 12L8 8L9 8L9 11L10 11L10 12L9 12L9 13L8 13L8 15L11 15L11 16L10 16L10 17L8 17L8 18L11 18L11 17L12 17L12 16L13 16L13 18L12 18L12 19L10 19L10 20L9 20L9 19L8 19L8 21L10 21L10 20L11 20L11 21L14 21L14 20L12 20L12 19L13 19L13 18L14 18L14 19L16 19L16 20L15 20L15 21L16 21L16 20L17 20L17 21L19 21L19 20L17 20L17 19L16 19L16 18L17 18L17 17L16 17L16 16L14 16L14 15L11 15L11 14L12 14L12 13L13 13L13 12L14 12L14 13L15 13L15 14L16 14L16 15L17 15L17 16L18 16L18 17L19 17L19 18L18 18L18 19L19 19L19 18L20 18L20 20L21 20L21 14L20 14L20 11L21 11L21 10L20 10L20 8L18 8L18 9L17 9L17 8L14 8L14 11L13 11L13 10L12 10L12 11L11 11L11 8L13 8L13 4L12 4L12 3L13 3L13 2L12 2L12 1L13 1L13 0L11 0L11 2L12 2L12 3L11 3L11 4L12 4L12 5L11 5L11 6L10 6L10 7L9 7L9 4L10 4L10 0ZM11 6L11 7L12 7L12 6ZM1 9L1 10L2 10L2 9ZM15 9L15 11L16 11L16 10L17 10L17 11L20 11L20 10L17 10L17 9ZM12 11L12 12L10 12L10 13L9 13L9 14L10 14L10 13L12 13L12 12L13 12L13 11ZM15 12L15 13L17 13L17 14L18 14L18 16L19 16L19 17L20 17L20 14L18 14L18 13L17 13L17 12ZM15 17L15 18L16 18L16 17ZM0 0L0 7L7 7L7 0ZM1 1L1 6L6 6L6 1ZM2 2L2 5L5 5L5 2ZM14 0L14 7L21 7L21 0ZM15 1L15 6L20 6L20 1ZM16 2L16 5L19 5L19 2ZM0 14L0 21L7 21L7 14ZM1 15L1 20L6 20L6 15ZM2 16L2 19L5 19L5 16Z" fill="#000000"/></g></g></svg>
