<?xml version="1.0" encoding="UTF-8"?>
<svg xmlns="http://www.w3.org/2000/svg" version="1.1" width="400" height="400" viewBox="0 0 400 400"><rect x="0" y="0" width="400" height="400" fill="#ffffff"/><g transform="scale(19.048)"><g transform="translate(0,0)"><path fill-rule="evenodd" d="M9 0L9 2L8 2L8 3L9 3L9 4L10 4L10 5L11 5L11 4L12 4L12 7L11 7L11 6L10 6L10 7L9 7L9 6L8 6L8 8L4 8L4 9L3 9L3 8L0 8L0 10L1 10L1 9L3 9L3 10L2 10L2 11L0 11L0 13L1 13L1 12L2 12L2 11L5 11L5 12L6 12L6 13L8 13L8 17L9 17L9 16L10 16L10 18L8 18L8 21L10 21L10 20L12 20L12 21L13 21L13 20L12 20L12 19L13 19L13 18L14 18L14 19L16 19L16 18L18 18L18 19L19 19L19 20L18 20L18 21L19 21L19 20L20 20L20 21L21 21L21 18L20 18L20 17L21 17L21 15L20 15L20 16L18 16L18 15L17 15L17 14L16 14L16 15L15 15L15 14L14 14L14 13L18 13L18 14L19 14L19 13L20 13L20 12L21 12L21 10L20 10L20 9L19 9L19 8L18 8L18 9L15 9L15 8L13 8L13 4L12 4L12 3L13 3L13 2L12 2L12 1L13 1L13 0L11 0L11 1L10 1L10 0ZM10 2L10 4L11 4L11 2ZM10 7L10 8L11 8L11 7ZM12 8L12 9L11 9L11 11L10 11L10 12L9 12L9 13L10 13L10 14L11 14L11 13L12 13L12 15L14 15L14 16L12 16L12 18L11 18L11 19L12 19L12 18L13 18L13 17L14 17L14 18L16 18L16 17L14 17L14 16L15 16L15 15L14 15L14 14L13 14L13 13L14 13L14 12L18 12L18 11L19 11L19 10L15 10L15 11L14 11L14 10L13 10L13 8ZM6 9L6 10L5 10L5 11L6 11L6 12L7 12L7 11L9 11L9 10L8 10L8 9ZM6 10L6 11L7 11L7 10ZM12 10L12 11L13 11L13 10ZM3 12L3 13L4 13L4 12ZM10 12L10 13L11 13L11 12ZM12 12L12 13L13 13L13 12ZM10 15L10 16L11 16L11 15ZM16 15L16 16L17 16L17 17L18 17L18 18L19 18L19 19L20 19L20 18L19 18L19 17L18 17L18 16L17 16L17 15ZM14 20L14 21L16 21L16 20ZM0 0L0 7L7 7L7 0ZM1 1L1 6L6 6L6 1ZM2 2L2 5L5 5L5 2ZM14 0L14 7L21 7L21 0ZM15 1L15 6L20 6L20 1ZM16 2L16 5L19 5L19 2ZM0 14L0 21L7 21L7 14ZM1 15L1 20L6 20L6 15ZM2 16L2 19L5 19L5 16Z" fill="#000000"/></g></g></svg>
