<?xml version="1.0" encoding="UTF-8"?>
<svg xmlns="http://www.w3.org/2000/svg" version="1.1" width="400" height="400" viewBox="0 0 400 400"><rect x="0" y="0" width="400" height="400" fill="#ffffff"/><g transform="scale(19.048)"><g transform="translate(0,0)"><path fill-rule="evenodd" d="M8 0L8 1L9 1L9 0ZM10 0L10 2L8 2L8 5L9 5L9 6L8 6L8 7L9 7L9 6L10 6L10 7L11 7L11 8L8 8L8 10L9 10L9 11L8 11L8 12L9 12L9 13L8 13L8 14L10 14L10 15L9 15L9 17L8 17L8 21L9 21L9 20L10 20L10 21L11 21L11 20L12 20L12 19L13 19L13 18L14 18L14 17L15 17L15 16L16 16L16 17L18 17L18 16L19 16L19 18L18 18L18 20L19 20L19 21L20 21L20 20L19 20L19 18L20 18L20 17L21 17L21 14L20 14L20 11L21 11L21 10L20 10L20 9L21 9L21 8L20 8L20 9L19 9L19 8L16 8L16 9L17 9L17 12L16 12L16 10L15 10L15 11L14 11L14 10L13 10L13 9L14 9L14 8L13 8L13 5L12 5L12 4L13 4L13 3L12 3L12 1L13 1L13 0ZM10 2L10 4L9 4L9 5L11 5L11 4L12 4L12 3L11 3L11 2ZM11 6L11 7L12 7L12 6ZM0 8L0 9L1 9L1 10L2 10L2 13L3 13L3 10L6 10L6 11L7 11L7 10L6 10L6 9L7 9L7 8L6 8L6 9L4 9L4 8ZM2 9L2 10L3 10L3 9ZM9 9L9 10L11 10L11 9ZM12 10L12 12L11 12L11 11L10 11L10 13L12 13L12 14L14 14L14 15L11 15L11 17L10 17L10 18L9 18L9 19L12 19L12 18L13 18L13 17L14 17L14 16L15 16L15 14L16 14L16 15L17 15L17 16L18 16L18 15L19 15L19 12L17 12L17 14L16 14L16 13L15 13L15 14L14 14L14 11L13 11L13 10ZM18 10L18 11L20 11L20 10ZM4 12L4 13L7 13L7 12ZM12 12L12 13L13 13L13 12ZM12 16L12 17L13 17L13 16ZM16 18L16 20L15 20L15 19L14 19L14 20L15 20L15 21L17 21L17 18ZM0 0L0 7L7 7L7 0ZM1 1L1 6L6 6L6 1ZM2 2L2 5L5 5L5 2ZM14 0L14 7L21 7L21 0ZM15 1L15 6L20 6L20 1ZM16 2L16 5L19 5L19 2ZM0 14L0 21L7 21L7 14ZM1 15L1 20L6 20L6 15ZM2 16L2 19L5 19L5 16Z" fill="#000000"/></g></g></svg>
