<?xml version="1.0" encoding="UTF-8"?>
<svg xmlns="http://www.w3.org/2000/svg" version="1.1" width="400" height="400" viewBox="0 0 400 400"><rect x="0" y="0" width="400" height="400" fill="#ffffff"/><g transform="scale(19.048)"><g transform="translate(0,0)"><path fill-rule="evenodd" d="M12 0L12 2L11 2L11 1L10 1L10 4L9 4L9 3L8 3L8 5L9 5L9 6L8 6L8 7L9 7L9 6L10 6L10 7L11 7L11 6L12 6L12 7L13 7L13 6L12 6L12 5L13 5L13 0ZM11 3L11 4L10 4L10 6L11 6L11 5L12 5L12 3ZM0 8L0 9L2 9L2 10L1 10L1 12L2 12L2 13L3 13L3 12L4 12L4 13L5 13L5 11L7 11L7 12L6 12L6 13L8 13L8 16L10 16L10 18L11 18L11 19L8 19L8 21L9 21L9 20L10 20L10 21L11 21L11 19L12 19L12 21L14 21L14 20L13 20L13 19L15 19L15 18L16 18L16 19L17 19L17 20L15 20L15 21L17 21L17 20L18 20L18 21L19 21L19 19L20 19L20 20L21 20L21 18L19 18L19 19L17 19L17 18L16 18L16 17L15 17L15 18L13 18L13 17L12 17L12 16L10 16L10 15L9 15L9 13L8 13L8 11L9 11L9 10L6 10L6 9L8 9L8 8L5 8L5 9L4 9L4 10L3 10L3 9L2 9L2 8ZM11 8L11 10L10 10L10 14L11 14L11 15L12 15L12 14L13 14L13 13L16 13L16 12L17 12L17 14L20 14L20 15L18 15L18 17L20 17L20 15L21 15L21 11L20 11L20 13L19 13L19 10L21 10L21 9L19 9L19 10L18 10L18 8L16 8L16 9L15 9L15 11L16 11L16 12L13 12L13 11L14 11L14 9L12 9L12 8ZM4 10L4 11L5 11L5 10ZM11 10L11 11L12 11L12 10ZM17 10L17 11L18 11L18 10ZM2 11L2 12L3 12L3 11ZM11 13L11 14L12 14L12 13ZM15 14L15 15L14 15L14 16L17 16L17 15L16 15L16 14ZM11 17L11 18L12 18L12 17ZM0 0L0 7L7 7L7 0ZM1 1L1 6L6 6L6 1ZM2 2L2 5L5 5L5 2ZM14 0L14 7L21 7L21 0ZM15 1L15 6L20 6L20 1ZM16 2L16 5L19 5L19 2ZM0 14L0 21L7 21L7 14ZM1 15L1 20L6 20L6 15ZM2 16L2 19L5 19L5 16Z" fill="#000000"/></g></g></svg>
