<?xml version="1.0" encoding="UTF-8"?>
<svg xmlns="http://www.w3.org/2000/svg" version="1.1" width="400" height="400" viewBox="0 0 400 400"><rect x="0" y="0" width="400" height="400" fill="#ffffff"/><g transform="scale(19.048)"><g transform="translate(0,0)"><path fill-rule="evenodd" d="M9 0L9 2L8 2L8 3L9 3L9 4L10 4L10 5L11 5L11 4L12 4L12 7L11 7L11 6L10 6L10 7L9 7L9 6L8 6L8 8L4 8L4 9L3 9L3 8L0 8L0 11L2 11L2 10L5 10L5 11L3 11L3 12L1 12L1 13L3 13L3 12L4 12L4 13L8 13L8 17L9 17L9 16L10 16L10 17L11 17L11 18L12 18L12 19L11 19L11 20L12 20L12 21L16 21L16 20L14 20L14 19L16 19L16 18L18 18L18 19L17 19L17 20L18 20L18 21L19 21L19 20L20 20L20 21L21 21L21 18L20 18L20 17L21 17L21 15L20 15L20 16L18 16L18 15L17 15L17 14L19 14L19 13L20 13L20 14L21 14L21 11L20 11L20 10L21 10L21 9L20 9L20 10L19 10L19 12L16 12L16 13L15 13L15 14L14 14L14 13L13 13L13 12L15 12L15 11L18 11L18 10L17 10L17 9L16 9L16 10L12 10L12 11L13 11L13 12L12 12L12 13L11 13L11 11L10 11L10 10L9 10L9 9L12 9L12 8L13 8L13 9L15 9L15 8L13 8L13 4L12 4L12 3L13 3L13 2L12 2L12 1L13 1L13 0L11 0L11 1L10 1L10 0ZM10 2L10 4L11 4L11 2ZM10 7L10 8L11 8L11 7ZM18 8L18 9L19 9L19 8ZM1 9L1 10L2 10L2 9ZM5 9L5 10L8 10L8 11L5 11L5 12L8 12L8 13L9 13L9 15L10 15L10 16L11 16L11 13L10 13L10 12L9 12L9 10L8 10L8 9ZM12 13L12 15L14 15L14 16L12 16L12 18L13 18L13 19L12 19L12 20L13 20L13 19L14 19L14 18L16 18L16 15L14 15L14 14L13 14L13 13ZM14 16L14 17L13 17L13 18L14 18L14 17L15 17L15 16ZM17 16L17 17L18 17L18 18L19 18L19 19L20 19L20 18L19 18L19 17L18 17L18 16ZM8 18L8 21L9 21L9 18ZM0 0L0 7L7 7L7 0ZM1 1L1 6L6 6L6 1ZM2 2L2 5L5 5L5 2ZM14 0L14 7L21 7L21 0ZM15 1L15 6L20 6L20 1ZM16 2L16 5L19 5L19 2ZM0 14L0 21L7 21L7 14ZM1 15L1 20L6 20L6 15ZM2 16L2 19L5 19L5 16Z" fill="#000000"/></g></g></svg>
