<?xml version="1.0" encoding="UTF-8"?>
<svg xmlns="http://www.w3.org/2000/svg" version="1.1" width="400" height="400" viewBox="0 0 400 400"><rect x="0" y="0" width="400" height="400" fill="#ffffff"/><g transform="scale(19.048)"><g transform="translate(0,0)"><path fill-rule="evenodd" d="M8 0L8 1L9 1L9 0ZM10 0L10 2L8 2L8 5L9 5L9 6L8 6L8 7L9 7L9 6L10 6L10 7L11 7L11 8L8 8L8 10L6 10L6 9L7 9L7 8L6 8L6 9L4 9L4 8L0 8L0 11L2 11L2 12L0 12L0 13L2 13L2 12L3 12L3 13L4 13L4 12L6 12L6 13L8 13L8 14L10 14L10 17L11 17L11 15L14 15L14 14L15 14L15 16L14 16L14 17L13 17L13 16L12 16L12 17L13 17L13 18L12 18L12 19L11 19L11 20L12 20L12 19L13 19L13 18L14 18L14 17L16 17L16 18L15 18L15 19L14 19L14 20L15 20L15 21L17 21L17 20L19 20L19 21L20 21L20 20L19 20L19 18L20 18L20 17L21 17L21 13L20 13L20 12L21 12L21 11L20 11L20 10L21 10L21 8L20 8L20 9L19 9L19 8L16 8L16 9L15 9L15 10L16 10L16 11L13 11L13 12L12 12L12 10L13 10L13 9L14 9L14 8L13 8L13 5L12 5L12 4L13 4L13 3L12 3L12 1L13 1L13 0ZM10 2L10 4L9 4L9 5L11 5L11 4L12 4L12 3L11 3L11 2ZM11 6L11 7L12 7L12 6ZM1 9L1 10L2 10L2 9ZM9 9L9 10L8 10L8 11L11 11L11 9ZM17 9L17 10L18 10L18 12L17 12L17 11L16 11L16 12L15 12L15 14L16 14L16 12L17 12L17 13L19 13L19 14L17 14L17 15L16 15L16 17L17 17L17 19L16 19L16 20L17 20L17 19L18 19L18 18L19 18L19 16L18 16L18 15L20 15L20 13L19 13L19 9ZM4 10L4 11L3 11L3 12L4 12L4 11L5 11L5 10ZM6 11L6 12L7 12L7 11ZM9 12L9 13L10 13L10 12ZM11 12L11 13L12 13L12 14L14 14L14 12L13 12L13 13L12 13L12 12ZM17 16L17 17L18 17L18 16ZM8 17L8 21L10 21L10 20L9 20L9 19L10 19L10 18L9 18L9 17ZM0 0L0 7L7 7L7 0ZM1 1L1 6L6 6L6 1ZM2 2L2 5L5 5L5 2ZM14 0L14 7L21 7L21 0ZM15 1L15 6L20 6L20 1ZM16 2L16 5L19 5L19 2ZM0 14L0 21L7 21L7 14ZM1 15L1 20L6 20L6 15ZM2 16L2 19L5 19L5 16Z" fill="#000000"/></g></g></svg>
