<?xml version="1.0" encoding="UTF-8"?>
<svg xmlns="http://www.w3.org/2000/svg" version="1.1" width="400" height="400" viewBox="0 0 400 400"><rect x="0" y="0" width="400" height="400" fill="#ffffff"/><g transform="scale(19.048)"><g transform="translate(0,0)"><path fill-rule="evenodd" d="M12 0L12 2L11 2L11 1L10 1L10 4L9 4L9 3L8 3L8 5L9 5L9 6L8 6L8 7L9 7L9 6L10 6L10 7L11 7L11 6L12 6L12 7L13 7L13 6L12 6L12 5L13 5L13 0ZM11 3L11 4L10 4L10 6L11 6L11 5L12 5L12 3ZM0 8L0 9L2 9L2 10L0 10L0 11L1 11L1 12L0 12L0 13L1 13L1 12L2 12L2 11L3 11L3 13L7 13L7 12L5 12L5 11L7 11L7 10L5 10L5 9L8 9L8 8L5 8L5 9L4 9L4 10L5 10L5 11L3 11L3 9L2 9L2 8ZM11 8L11 10L12 10L12 11L11 11L11 12L10 12L10 14L9 14L9 11L10 11L10 9L9 9L9 10L8 10L8 16L9 16L9 19L8 19L8 21L9 21L9 20L10 20L10 19L12 19L12 21L14 21L14 20L13 20L13 19L15 19L15 18L13 18L13 17L12 17L12 16L9 16L9 15L12 15L12 14L13 14L13 13L15 13L15 14L16 14L16 18L17 18L17 19L16 19L16 20L17 20L17 19L20 19L20 20L21 20L21 18L19 18L19 17L20 17L20 15L21 15L21 14L20 14L20 13L21 13L21 12L19 12L19 10L18 10L18 12L17 12L17 11L16 11L16 12L17 12L17 13L15 13L15 12L14 12L14 11L15 11L15 10L14 10L14 9L12 9L12 8ZM16 8L16 10L17 10L17 9L18 9L18 8ZM13 10L13 11L14 11L14 10ZM20 10L20 11L21 11L21 10ZM11 13L11 14L12 14L12 13ZM18 13L18 14L17 14L17 18L18 18L18 15L19 15L19 13ZM14 15L14 16L15 16L15 15ZM10 17L10 18L12 18L12 17ZM18 20L18 21L19 21L19 20ZM0 0L0 7L7 7L7 0ZM1 1L1 6L6 6L6 1ZM2 2L2 5L5 5L5 2ZM14 0L14 7L21 7L21 0ZM15 1L15 6L20 6L20 1ZM16 2L16 5L19 5L19 2ZM0 14L0 21L7 21L7 14ZM1 15L1 20L6 20L6 15ZM2 16L2 19L5 19L5 16Z" fill="#000000"/></g></g></svg>
